<mxfile host="app.diagrams.net" agent="Mozilla/5.0 (Windows NT 10.0; Win64; x64) AppleWebKit/537.36 (KHTML, like Gecko) Chrome/135.0.0.0 Safari/537.36 Edg/135.0.0.0" version="26.2.14" pages="2">
  <diagram id="C5RBs43oDa-KdzZeNtuy" name="Page-1">
    <mxGraphModel dx="766" dy="428" grid="1" gridSize="10" guides="1" tooltips="1" connect="1" arrows="1" fold="1" page="1" pageScale="1" pageWidth="827" pageHeight="1169" math="0" shadow="0">
      <root>
        <mxCell id="WIyWlLk6GJQsqaUBKTNV-0" />
        <mxCell id="WIyWlLk6GJQsqaUBKTNV-1" parent="WIyWlLk6GJQsqaUBKTNV-0" />
        <mxCell id="vleZaPMKjbEpvkwjxqv--9" value="&lt;div&gt;&lt;span style=&quot;background-color: transparent; color: light-dark(rgb(0, 0, 0), rgb(255, 255, 255));&quot;&gt;Received by broker&lt;/span&gt;&lt;/div&gt;" style="rounded=1;whiteSpace=wrap;html=1;fontSize=12;glass=0;strokeWidth=1;shadow=0;" vertex="1" parent="WIyWlLk6GJQsqaUBKTNV-1">
          <mxGeometry x="278" y="440" width="120" height="40" as="geometry" />
        </mxCell>
        <mxCell id="vleZaPMKjbEpvkwjxqv--10" value="" style="rounded=0;html=1;jettySize=auto;orthogonalLoop=1;fontSize=11;endArrow=block;endFill=0;endSize=8;strokeWidth=1;shadow=0;labelBackgroundColor=none;edgeStyle=orthogonalEdgeStyle;" edge="1" parent="WIyWlLk6GJQsqaUBKTNV-1" source="vleZaPMKjbEpvkwjxqv--12" target="vleZaPMKjbEpvkwjxqv--13">
          <mxGeometry relative="1" as="geometry">
            <mxPoint x="338" y="115" as="targetPoint" />
            <Array as="points" />
          </mxGeometry>
        </mxCell>
        <mxCell id="vleZaPMKjbEpvkwjxqv--11" value="Robots land" style="rounded=1;whiteSpace=wrap;html=1;fontSize=12;glass=0;strokeWidth=1;shadow=0;" vertex="1" parent="WIyWlLk6GJQsqaUBKTNV-1">
          <mxGeometry x="278" y="20" width="120" height="40" as="geometry" />
        </mxCell>
        <mxCell id="vleZaPMKjbEpvkwjxqv--12" value="UART &amp;amp; MQTT initialization" style="text;strokeColor=none;align=center;fillColor=none;html=1;verticalAlign=middle;whiteSpace=wrap;rounded=0;" vertex="1" parent="WIyWlLk6GJQsqaUBKTNV-1">
          <mxGeometry x="293" y="70" width="90" height="30" as="geometry" />
        </mxCell>
        <mxCell id="vleZaPMKjbEpvkwjxqv--13" value="Data retrieved for example by sensors" style="rounded=1;whiteSpace=wrap;html=1;fontSize=12;glass=0;strokeWidth=1;shadow=0;" vertex="1" parent="WIyWlLk6GJQsqaUBKTNV-1">
          <mxGeometry x="278" y="130" width="120" height="40" as="geometry" />
        </mxCell>
        <mxCell id="vleZaPMKjbEpvkwjxqv--16" value="" style="rounded=0;html=1;jettySize=auto;orthogonalLoop=1;fontSize=11;endArrow=block;endFill=0;endSize=8;strokeWidth=1;shadow=0;labelBackgroundColor=none;edgeStyle=orthogonalEdgeStyle;exitX=0.007;exitY=0.551;exitDx=0;exitDy=0;exitPerimeter=0;" edge="1" parent="WIyWlLk6GJQsqaUBKTNV-1" source="vleZaPMKjbEpvkwjxqv--13">
          <mxGeometry relative="1" as="geometry">
            <mxPoint x="237.78" y="201" as="targetPoint" />
            <mxPoint x="328" y="180" as="sourcePoint" />
            <Array as="points">
              <mxPoint x="238" y="152" />
              <mxPoint x="238" y="180" />
            </Array>
          </mxGeometry>
        </mxCell>
        <mxCell id="vleZaPMKjbEpvkwjxqv--18" value="" style="rounded=0;html=1;jettySize=auto;orthogonalLoop=1;fontSize=11;endArrow=block;endFill=0;endSize=8;strokeWidth=1;shadow=0;labelBackgroundColor=none;edgeStyle=orthogonalEdgeStyle;exitX=1;exitY=0.5;exitDx=0;exitDy=0;" edge="1" parent="WIyWlLk6GJQsqaUBKTNV-1" source="vleZaPMKjbEpvkwjxqv--13">
          <mxGeometry relative="1" as="geometry">
            <mxPoint x="438" y="200" as="targetPoint" />
            <mxPoint x="479.22" y="151" as="sourcePoint" />
            <Array as="points">
              <mxPoint x="438" y="150" />
            </Array>
          </mxGeometry>
        </mxCell>
        <mxCell id="vleZaPMKjbEpvkwjxqv--19" value="ESP32 subscribes to channel via MQTT and receives the payload" style="rounded=1;whiteSpace=wrap;html=1;fontSize=12;glass=0;strokeWidth=1;shadow=0;" vertex="1" parent="WIyWlLk6GJQsqaUBKTNV-1">
          <mxGeometry x="50" y="700" width="120" height="40" as="geometry" />
        </mxCell>
        <mxCell id="vleZaPMKjbEpvkwjxqv--20" value="Store data&amp;nbsp;" style="rounded=1;whiteSpace=wrap;html=1;fontSize=12;glass=0;strokeWidth=1;shadow=0;" vertex="1" parent="WIyWlLk6GJQsqaUBKTNV-1">
          <mxGeometry x="278" y="510" width="120" height="40" as="geometry" />
        </mxCell>
        <mxCell id="vleZaPMKjbEpvkwjxqv--21" value="&lt;font style=&quot;font-size: 10px;&quot;&gt;PYNQ reads the data through its GPIO pins or I2C/SPI interfaces.&lt;/font&gt;" style="rounded=1;whiteSpace=wrap;html=1;fontSize=12;glass=0;strokeWidth=1;shadow=0;" vertex="1" parent="WIyWlLk6GJQsqaUBKTNV-1">
          <mxGeometry x="163" y="200" width="120" height="40" as="geometry" />
        </mxCell>
        <mxCell id="vleZaPMKjbEpvkwjxqv--22" value="&lt;font style=&quot;font-size: 10px;&quot;&gt;PYNQ reads the data through its GPIO pins or I2C/SPI interfaces&lt;/font&gt;" style="rounded=1;whiteSpace=wrap;html=1;fontSize=12;glass=0;strokeWidth=1;shadow=0;" vertex="1" parent="WIyWlLk6GJQsqaUBKTNV-1">
          <mxGeometry x="403" y="200" width="120" height="40" as="geometry" />
        </mxCell>
        <mxCell id="vleZaPMKjbEpvkwjxqv--23" value="Robot A" style="text;strokeColor=none;align=center;fillColor=none;html=1;verticalAlign=middle;whiteSpace=wrap;rounded=0;" vertex="1" parent="WIyWlLk6GJQsqaUBKTNV-1">
          <mxGeometry x="158" y="150" width="60" height="30" as="geometry" />
        </mxCell>
        <mxCell id="vleZaPMKjbEpvkwjxqv--24" value="Robot B" style="text;strokeColor=none;align=center;fillColor=none;html=1;verticalAlign=middle;whiteSpace=wrap;rounded=0;" vertex="1" parent="WIyWlLk6GJQsqaUBKTNV-1">
          <mxGeometry x="458" y="150" width="60" height="30" as="geometry" />
        </mxCell>
        <mxCell id="vleZaPMKjbEpvkwjxqv--25" value="&lt;font style=&quot;font-size: 10px;&quot;&gt;&lt;span style=&quot;&quot; data-end=&quot;535&quot; data-start=&quot;487&quot;&gt;PYNQ sends the payload via UART to the ESP32&lt;/span&gt;&lt;/font&gt;" style="rounded=1;whiteSpace=wrap;html=1;fontSize=12;glass=0;strokeWidth=1;shadow=0;" vertex="1" parent="WIyWlLk6GJQsqaUBKTNV-1">
          <mxGeometry x="163" y="280" width="120" height="40" as="geometry" />
        </mxCell>
        <mxCell id="vleZaPMKjbEpvkwjxqv--26" value="&lt;font style=&quot;font-size: 10px;&quot;&gt;&lt;span style=&quot;&quot; data-end=&quot;535&quot; data-start=&quot;487&quot;&gt;PYNQ sends the payload via UART to the ESP32&lt;/span&gt;&lt;/font&gt;" style="rounded=1;whiteSpace=wrap;html=1;fontSize=12;glass=0;strokeWidth=1;shadow=0;" vertex="1" parent="WIyWlLk6GJQsqaUBKTNV-1">
          <mxGeometry x="401" y="280" width="120" height="40" as="geometry" />
        </mxCell>
        <mxCell id="vleZaPMKjbEpvkwjxqv--28" value="&lt;font style=&quot;font-size: 10px;&quot;&gt;ESP32 publishes the payload via MQTT to the broker (PC) using \send&lt;/font&gt;" style="rounded=1;whiteSpace=wrap;html=1;fontSize=12;glass=0;strokeWidth=1;shadow=0;" vertex="1" parent="WIyWlLk6GJQsqaUBKTNV-1">
          <mxGeometry x="401" y="360" width="120" height="40" as="geometry" />
        </mxCell>
        <mxCell id="vleZaPMKjbEpvkwjxqv--29" value="&lt;font style=&quot;font-size: 10px;&quot;&gt;ESP32 publishes the payload via MQTT to the broker (PC) using \send&lt;/font&gt;" style="rounded=1;whiteSpace=wrap;html=1;fontSize=12;glass=0;strokeWidth=1;shadow=0;" vertex="1" parent="WIyWlLk6GJQsqaUBKTNV-1">
          <mxGeometry x="163" y="360" width="120" height="40" as="geometry" />
        </mxCell>
        <mxCell id="vleZaPMKjbEpvkwjxqv--30" value="&lt;font style=&quot;font-size: 10px;&quot;&gt;Does it have to be send to other robot.&amp;nbsp;&lt;/font&gt;" style="rhombus;whiteSpace=wrap;html=1;" vertex="1" parent="WIyWlLk6GJQsqaUBKTNV-1">
          <mxGeometry x="288" y="585" width="100" height="90" as="geometry" />
        </mxCell>
        <mxCell id="vleZaPMKjbEpvkwjxqv--31" value="" style="rounded=0;html=1;jettySize=auto;orthogonalLoop=1;fontSize=11;endArrow=block;endFill=0;endSize=8;strokeWidth=1;shadow=0;labelBackgroundColor=none;edgeStyle=orthogonalEdgeStyle;exitX=0;exitY=0.5;exitDx=0;exitDy=0;" edge="1" parent="WIyWlLk6GJQsqaUBKTNV-1" source="vleZaPMKjbEpvkwjxqv--30">
          <mxGeometry relative="1" as="geometry">
            <mxPoint x="100" y="700" as="targetPoint" />
            <mxPoint x="141.22" y="651" as="sourcePoint" />
            <Array as="points">
              <mxPoint x="100" y="630" />
            </Array>
          </mxGeometry>
        </mxCell>
        <mxCell id="vleZaPMKjbEpvkwjxqv--32" value="Yes, data from B" style="edgeLabel;html=1;align=center;verticalAlign=middle;resizable=0;points=[];" vertex="1" connectable="0" parent="vleZaPMKjbEpvkwjxqv--31">
          <mxGeometry x="-0.2482" y="3" relative="1" as="geometry">
            <mxPoint x="-6" y="-17" as="offset" />
          </mxGeometry>
        </mxCell>
        <mxCell id="vleZaPMKjbEpvkwjxqv--33" value="" style="rounded=0;html=1;jettySize=auto;orthogonalLoop=1;fontSize=11;endArrow=block;endFill=0;endSize=8;strokeWidth=1;shadow=0;labelBackgroundColor=none;edgeStyle=orthogonalEdgeStyle;" edge="1" parent="WIyWlLk6GJQsqaUBKTNV-1">
          <mxGeometry relative="1" as="geometry">
            <mxPoint x="240" y="710" as="targetPoint" />
            <mxPoint x="240" y="630" as="sourcePoint" />
            <Array as="points">
              <mxPoint x="240" y="640" />
            </Array>
          </mxGeometry>
        </mxCell>
        <mxCell id="vleZaPMKjbEpvkwjxqv--35" value="Yes, data from A&amp;nbsp;" style="edgeLabel;html=1;align=center;verticalAlign=middle;resizable=0;points=[];" vertex="1" connectable="0" parent="vleZaPMKjbEpvkwjxqv--33">
          <mxGeometry x="0.0315" y="-2" relative="1" as="geometry">
            <mxPoint x="50" y="19" as="offset" />
          </mxGeometry>
        </mxCell>
        <mxCell id="vleZaPMKjbEpvkwjxqv--37" value="" style="rounded=0;html=1;jettySize=auto;orthogonalLoop=1;fontSize=11;endArrow=block;endFill=0;endSize=8;strokeWidth=1;shadow=0;labelBackgroundColor=none;edgeStyle=orthogonalEdgeStyle;" edge="1" parent="WIyWlLk6GJQsqaUBKTNV-1">
          <mxGeometry relative="1" as="geometry">
            <mxPoint x="100" y="780" as="targetPoint" />
            <mxPoint x="100" y="740" as="sourcePoint" />
            <Array as="points">
              <mxPoint x="100" y="750" />
            </Array>
          </mxGeometry>
        </mxCell>
      </root>
    </mxGraphModel>
  </diagram>
  <diagram id="oJBP4x1SUfFnkYSE87u4" name="Page-2">
    <mxGraphModel dx="1034" dy="578" grid="1" gridSize="10" guides="1" tooltips="1" connect="1" arrows="1" fold="1" page="1" pageScale="1" pageWidth="850" pageHeight="1100" math="0" shadow="0">
      <root>
        <mxCell id="0" />
        <mxCell id="1" parent="0" />
      </root>
    </mxGraphModel>
  </diagram>
</mxfile>
